<?xml version="1.0" standalone="no"?>
<!DOCTYPE svg PUBLIC "-//W3C//DTD SVG 1.1//EN" "http://www.w3.org/Graphics/SVG/1.1/DTD/svg11.dtd">
<svg width="20.512390904159002in" height="22.494236755658243in"
 viewBox="0 0 20.512390904159002 22.494236755658243"
 xmlns="http://www.w3.org/2000/svg" version="1.1"
 xmlns:xlink="http://www.w3.org/1999/xlink">
<desc>Output from Flights of Ideas SVG Sketchup Plugin</desc>

  <path id="face0-cut"
 style="fill:none;stroke:#0000FF;stroke-width:0.0393700787402;stroke-miterlimit:4;stroke-dasharray:none;stroke-linejoin:round;stroke-linecap:round"
        d="M 16.1860571530202,21.25600697832336 L 17.552533763216218,22.100535968256242 L 17.9936901189245,21.854575190756155 L 17.9936901189245,20.248185592604496 L 18.634867959982905,18.831832972935576 L 19.16477095367182,17.370201492573006 L 19.580235184690604,15.872018179406252 L 19.878780022333167,14.346228302973616 L 20.058622931699734,12.801941964544788 L 20.118690116757,11.248379703035248 L 20.058622931699734,9.694817441525702 L 19.878780022333167,8.150531103096874 L 19.580235184690604,6.624741226664241 L 19.16477095367182,5.126557913497484 L 18.634867959982905,3.664926433134917 L 17.9936901189245,2.248573813465997 L 17.9936901189245,0.6373728754102062 L 17.556630748872085,0.393700787402 L 16.186057153020204,1.2407914126160136 L 14.726307942203002,1.3904681651672366 L 13.283743494757658,1.65931515455418 L 11.868075852500063,2.045522372768096 L 10.488835974940102,2.546489685957399 L 9.1553095722509,3.158844339786781 L 7.876474589375185,3.878463666451221 L 6.660940762156168,4.70050284047033 L 5.516891652430216,5.619427496397538 L 4.4520295523290425,6.629050988846011 L 3.4735236287225937,7.722576043978627 L 2.5879616569189063,8.89264052204421 L 1.8013056685734603,10.131366982864346 L 0.39370078740200354,11.001344999699478 L 0.393700787402,11.495793981920551 L 1.801323103188801,12.365752416399625 L 2.58798472244627,13.604457907257014 L 3.4735515880214893,14.77450026669889 L 4.452061511088665,15.868002039332158 L 5.516926552152725,16.877601088763488 L 6.660977375169605,17.796500164096262 L 7.876511515990865,18.6185126632658 L 9.155345240159518,19.338104285105544 L 10.488868640917898,19.95043028971651 L 11.868103606473419,20.451368116279927 L 13.28376426625048,20.837545138709544 L 14.726319509166506,21.106361372275334 L 16.1860571530202,21.25600697832336 "
  />
  <path id="face0-interior"
 style="fill:none;stroke:#FF0000;stroke-width:0.0393700787402;stroke-miterlimit:4;stroke-dasharray:none;stroke-linejoin:round;stroke-linecap:round"
        d="M 16.1860571530202,21.25600697832336 M 17.552533763216218,22.100535968256242 M 17.9936901189245,21.854575190756155 M 17.9936901189245,20.248185592604496 M 18.634867959982905,18.831832972935576 M 19.16477095367182,17.370201492573006 M 19.580235184690604,15.872018179406252 M 19.878780022333167,14.346228302973616 M 20.058622931699734,12.801941964544788 M 20.118690116757,11.248379703035248 M 20.058622931699734,9.694817441525702 M 19.878780022333167,8.150531103096874 M 19.580235184690604,6.624741226664241 M 19.16477095367182,5.126557913497484 M 18.634867959982905,3.664926433134917 M 17.9936901189245,2.248573813465997 M 17.9936901189245,0.6373728754102062 M 17.556630748872085,0.393700787402 M 16.186057153020204,1.2407914126160136 M 14.726307942203002,1.3904681651672366 M 13.283743494757658,1.65931515455418 M 11.868075852500063,2.045522372768096 M 10.488835974940102,2.546489685957399 M 9.1553095722509,3.158844339786781 M 7.876474589375185,3.878463666451221 M 6.660940762156168,4.70050284047033 M 5.516891652430216,5.619427496397538 M 4.4520295523290425,6.629050988846011 M 3.4735236287225937,7.722576043978627 M 2.5879616569189063,8.89264052204421 M 1.8013056685734603,10.131366982864346 M 0.39370078740200354,11.001344999699478 M 0.393700787402,11.495793981920551 M 1.801323103188801,12.365752416399625 M 2.58798472244627,13.604457907257014 M 3.4735515880214893,14.77450026669889 M 4.452061511088665,15.868002039332158 M 5.516926552152725,16.877601088763488 M 6.660977375169605,17.796500164096262 M 7.876511515990865,18.6185126632658 M 9.155345240159518,19.338104285105544 M 10.488868640917898,19.95043028971651 M 11.868103606473419,20.451368116279927 M 13.28376426625048,20.837545138709544 M 14.726319509166506,21.106361372275334 "
  />
  <path id="face0-interior"
 style="fill:none;stroke:#00FF00;stroke-width:0.0393700787402;stroke-miterlimit:4;stroke-dasharray:none;stroke-linejoin:round;stroke-linecap:round"
        d="M 16.1860571530202,21.25600697832336 M 17.552533763216218,22.100535968256242 M 17.9936901189245,21.854575190756155 M 17.9936901189245,20.248185592604496 M 18.634867959982905,18.831832972935576 M 19.16477095367182,17.370201492573006 M 19.580235184690604,15.872018179406252 M 19.878780022333167,14.346228302973616 M 20.058622931699734,12.801941964544788 M 20.118690116757,11.248379703035248 M 20.058622931699734,9.694817441525702 M 19.878780022333167,8.150531103096874 M 19.580235184690604,6.624741226664241 M 19.16477095367182,5.126557913497484 M 18.634867959982905,3.664926433134917 M 17.9936901189245,2.248573813465997 M 17.9936901189245,0.6373728754102062 M 17.556630748872085,0.393700787402 M 16.186057153020204,1.2407914126160136 M 14.726307942203002,1.3904681651672366 M 13.283743494757658,1.65931515455418 M 11.868075852500063,2.045522372768096 M 10.488835974940102,2.546489685957399 M 9.1553095722509,3.158844339786781 M 7.876474589375185,3.878463666451221 M 6.660940762156168,4.70050284047033 M 5.516891652430216,5.619427496397538 M 4.4520295523290425,6.629050988846011 M 3.4735236287225937,7.722576043978627 M 2.5879616569189063,8.89264052204421 M 1.8013056685734603,10.131366982864346 M 0.39370078740200354,11.001344999699478 M 0.393700787402,11.495793981920551 M 1.801323103188801,12.365752416399625 M 2.58798472244627,13.604457907257014 M 3.4735515880214893,14.77450026669889 M 4.452061511088665,15.868002039332158 M 5.516926552152725,16.877601088763488 M 6.660977375169605,17.796500164096262 M 7.876511515990865,18.6185126632658 M 9.155345240159518,19.338104285105544 M 10.488868640917898,19.95043028971651 M 11.868103606473419,20.451368116279927 M 13.28376426625048,20.837545138709544 M 14.726319509166506,21.106361372275334 "
  />
</svg>
