<?xml version="1.0" standalone="no"?>
<!DOCTYPE svg PUBLIC "-//W3C//DTD SVG 1.1//EN" "http://www.w3.org/Graphics/SVG/1.1/DTD/svg11.dtd">
<svg width="22.787401552364in" height="3.7874015717440024in"
 viewBox="0 0 22.787401552364 3.7874015717440024"
 xmlns="http://www.w3.org/2000/svg" version="1.1"
 xmlns:xlink="http://www.w3.org/1999/xlink">
<desc>Output from Flights of Ideas SVG Sketchup Plugin</desc>

  <path id="face0-cut"
 style="fill:none;stroke:#0000FF;stroke-width:0.0393700787402;stroke-miterlimit:4;stroke-dasharray:none;stroke-linejoin:round;stroke-linecap:round"
        d="M 0.393700787402,3.3937007843420024 L 2.8937007848519998,3.3937007843420024 L 4.305380554886998,3.2410451414939425 L 5.719779196912448,3.1160651436703497 L 7.136354189042896,3.018808729537197 L 8.554562174608748,2.9493132038058367 L 9.973859170571961,2.907605222924274 L 11.393700776182008,2.893700784851976 L 12.813542381792056,2.9076052229242793 L 14.232839377755274,2.9493132038059495 L 15.651047363321123,3.018808729537205 L 17.067622355451572,3.116065143670167 L 18.48202099747702,3.241045141493691 L 19.89370076751202,3.3937007843420024 L 22.393700764962,3.3937007843420024 L 21.393700765981997,0.3937007874020093 L 20.393700767002,0.393700787402 L 20.393700767002,2.3937007853619914 L 19.893700767511998,2.393700785362028 L 19.893700767511998,0.3937007874020013 L 18.48202099747702,0.5463564302500661 L 17.067622355451572,0.6713364280736442 L 15.651047363321123,0.7685928422068304 L 14.232839377755274,0.8380883679381359 L 12.813542381792056,0.8797963488197573 L 11.39370077618201,0.8937007868920026 L 9.973859170571963,0.8797963488197595 L 8.55456217460875,0.8380883679381577 L 7.136354189042898,0.7685928422068171 L 5.71977919691245,0.6713364280736567 L 4.305380554886999,0.5463564302500488 L 2.8937007848519993,0.3937007874020031 L 2.8937007848519998,2.3937007853620025 L 2.393700785362,2.393700785362002 L 2.393700785362,0.3937007874020031 L 1.393700786382,0.3937007874020031 L 0.3937007874020001,1.8937007858720027 L 0.393700787402,3.3937007843420024 "
  />
  <path id="face0-interior"
 style="fill:none;stroke:#FF0000;stroke-width:0.0393700787402;stroke-miterlimit:4;stroke-dasharray:none;stroke-linejoin:round;stroke-linecap:round"
        d="M 0.393700787402,3.3937007843420024 M 2.8937007848519998,3.3937007843420024 M 4.305380554886998,3.2410451414939425 M 5.719779196912448,3.1160651436703497 M 7.136354189042896,3.018808729537197 M 8.554562174608748,2.9493132038058367 M 9.973859170571961,2.907605222924274 M 11.393700776182008,2.893700784851976 M 12.813542381792056,2.9076052229242793 M 14.232839377755274,2.9493132038059495 M 15.651047363321123,3.018808729537205 M 17.067622355451572,3.116065143670167 M 18.48202099747702,3.241045141493691 M 19.89370076751202,3.3937007843420024 M 22.393700764962,3.3937007843420024 M 21.393700765981997,0.3937007874020093 M 20.393700767002,0.393700787402 M 20.393700767002,2.3937007853619914 M 19.893700767511998,2.393700785362028 M 19.893700767511998,0.3937007874020013 M 18.48202099747702,0.5463564302500661 M 17.067622355451572,0.6713364280736442 M 15.651047363321123,0.7685928422068304 M 14.232839377755274,0.8380883679381359 M 12.813542381792056,0.8797963488197573 M 11.39370077618201,0.8937007868920026 M 9.973859170571963,0.8797963488197595 M 8.55456217460875,0.8380883679381577 M 7.136354189042898,0.7685928422068171 M 5.71977919691245,0.6713364280736567 M 4.305380554886999,0.5463564302500488 M 2.8937007848519993,0.3937007874020031 M 2.8937007848519998,2.3937007853620025 M 2.393700785362,2.393700785362002 M 2.393700785362,0.3937007874020031 M 1.393700786382,0.3937007874020031 M 0.3937007874020001,1.8937007858720027 "
  />
  <path id="face0-interior"
 style="fill:none;stroke:#00FF00;stroke-width:0.0393700787402;stroke-miterlimit:4;stroke-dasharray:none;stroke-linejoin:round;stroke-linecap:round"
        d="M 0.393700787402,3.3937007843420024 M 2.8937007848519998,3.3937007843420024 M 4.305380554886998,3.2410451414939425 M 5.719779196912448,3.1160651436703497 M 7.136354189042896,3.018808729537197 M 8.554562174608748,2.9493132038058367 M 9.973859170571961,2.907605222924274 M 11.393700776182008,2.893700784851976 M 12.813542381792056,2.9076052229242793 M 14.232839377755274,2.9493132038059495 M 15.651047363321123,3.018808729537205 M 17.067622355451572,3.116065143670167 M 18.48202099747702,3.241045141493691 M 19.89370076751202,3.3937007843420024 M 22.393700764962,3.3937007843420024 M 21.393700765981997,0.3937007874020093 M 20.393700767002,0.393700787402 M 20.393700767002,2.3937007853619914 M 19.893700767511998,2.393700785362028 M 19.893700767511998,0.3937007874020013 M 18.48202099747702,0.5463564302500661 M 17.067622355451572,0.6713364280736442 M 15.651047363321123,0.7685928422068304 M 14.232839377755274,0.8380883679381359 M 12.813542381792056,0.8797963488197573 M 11.39370077618201,0.8937007868920026 M 9.973859170571963,0.8797963488197595 M 8.55456217460875,0.8380883679381577 M 7.136354189042898,0.7685928422068171 M 5.71977919691245,0.6713364280736567 M 4.305380554886999,0.5463564302500488 M 2.8937007848519993,0.3937007874020031 M 2.8937007848519998,2.3937007853620025 M 2.393700785362,2.393700785362002 M 2.393700785362,0.3937007874020031 M 1.393700786382,0.3937007874020031 M 0.3937007874020001,1.8937007858720027 "
  />
</svg>
