<?xml version="1.0" encoding="UTF-8" standalone="no"?>
<svg
   xmlns:dc="http://purl.org/dc/elements/1.1/"
   xmlns:cc="http://creativecommons.org/ns#"
   xmlns:rdf="http://www.w3.org/1999/02/22-rdf-syntax-ns#"
   xmlns:svg="http://www.w3.org/2000/svg"
   xmlns="http://www.w3.org/2000/svg"
   xmlns:sodipodi="http://sodipodi.sourceforge.net/DTD/sodipodi-0.dtd"
   xmlns:inkscape="http://www.inkscape.org/namespaces/inkscape"
   width="793.700787402"
   height="1122.51968504"
   version="1.1"
   id="svg252"
   sodipodi:docname="Bed Side Table 2.svg"
   inkscape:version="0.92.2 (5c3e80d, 2017-08-06)">
  <metadata
     id="metadata256">
    <rdf:RDF>
      <cc:Work
         rdf:about="">
        <dc:format>image/svg+xml</dc:format>
        <dc:type
           rdf:resource="http://purl.org/dc/dcmitype/StillImage" />
        <dc:title></dc:title>
      </cc:Work>
    </rdf:RDF>
  </metadata>
  <sodipodi:namedview
     pagecolor="#ffffff"
     bordercolor="#666666"
     borderopacity="1"
     objecttolerance="10"
     gridtolerance="10"
     guidetolerance="10"
     inkscape:pageopacity="0"
     inkscape:pageshadow="2"
     inkscape:window-width="1366"
     inkscape:window-height="705"
     id="namedview254"
     showgrid="false"
     inkscape:zoom="0.21024131"
     inkscape:cx="2035.8284"
     inkscape:cy="1702.8052"
     inkscape:window-x="-8"
     inkscape:window-y="-8"
     inkscape:window-maximized="1"
     inkscape:current-layer="g250" />
  <desc
     id="desc134">C:\Users\Bar\Desktop\2D CAD Files\Bed Side Table 2.dxf - scale = 1.000000, origin = (0.000000, 0.000000), method = manual</desc>
  <defs
     id="defs148">
    <marker
       id="DistanceX"
       orient="auto"
       refX="0.0"
       refY="0.0"
       style="overflow:visible">
      <path
         d="M 3,-3 L -3,3 M 0,-5 L  0,5"
         style="stroke:#000000; stroke-width:0.5"
         id="path136" />
    </marker>
    <pattern
       height="8"
       id="Hatch"
       patternUnits="userSpaceOnUse"
       width="8"
       x="0"
       y="0">
      <path
         d="M8 4 l-4,4"
         linecap="square"
         stroke="#000000"
         stroke-width="0.25"
         id="path139" />
      <path
         d="M6 2 l-4,4"
         linecap="square"
         stroke="#000000"
         stroke-width="0.25"
         id="path141" />
      <path
         d="M4 0 l-4,4"
         linecap="square"
         stroke="#000000"
         stroke-width="0.25"
         id="path143" />
    </pattern>
    <symbol
       id="*MODEL_SPACE" />
    <symbol
       id="*PAPER_SPACE" />
  </defs>
  <g
     inkscape:groupmode="layer"
     inkscape:label="0"
     id="g150" />
  <g
     inkscape:groupmode="layer"
     inkscape:label="ANNOTATION_TEXT"
     id="g168">
    <text
       style="font-size: 13.2px; fill: #000000; font-family: Arial"
       x="3334.951308"
       y="-867.780454"
       id="text154">
      <tspan
         sodipodi:role="line"
         id="tspan152" />
    </text>
    <text
       style="font-size: 13.2px; fill: #000000; font-family: Arial"
       x="2309.896886"
       y="-553.122530"
       id="text158">
      <tspan
         sodipodi:role="line"
         id="tspan156" />
    </text>
    <text
       style="font-size: 13.2px; fill: #000000; font-family: Arial"
       x="3401.995049"
       y="1013.912288"
       id="text162">
      <tspan
         sodipodi:role="line"
         id="tspan160" />
    </text>
    <text
       style="font-size: 13.2px; fill: #000000; font-family: Arial"
       x="4276.035222"
       y="1037.022433"
       id="text166">
      <tspan
         sodipodi:role="line"
         id="tspan164" />
    </text>
  </g>
  <g
     inkscape:groupmode="layer"
     inkscape:label="VISIBLE"
     id="g250">
    <path
       d="M 3203.431308,-1331.750965 A 12.480000,12.480000 -0.000000 1 0 3178.471308,-1331.750965 12.480000,12.480000 -0.000000 1 0 3203.431308,-1331.750965 z"
       style="stroke:#000000;fill:none"
       id="path170" />
    <path
       d="M 3203.431308,-1830.581597 A 12.480000,12.480000 -0.000000 1 0 3178.471308,-1830.581597 12.480000,12.480000 -0.000000 1 0 3203.431308,-1830.581597 z"
       style="stroke:#000000;fill:none"
       id="path172" />
    <path
       d="M 3635.431308,-1581.166281 A 12.480000,12.480000 -0.000000 1 0 3610.471308,-1581.166281 12.480000,12.480000 -0.000000 1 0 3635.431308,-1581.166281 z"
       style="stroke:#000000;fill:none"
       id="path174" />
    <path
       d="M 3977.470993,-1581.166281 A 642.519685,642.519685 -0.000000 1 0 2692.431623,-1581.166281 642.519685,642.519685 -0.000000 1 0 3977.470993,-1581.166281 z"
       style="stroke:#000000;fill:none"
       id="path176" />
    <path
       d="M 2200.415311,-768.535495 2138.597649,-661.464163"
       style="stroke:#000000;fill:none"
       id="path178" />
    <path
       d="M 2138.597649,-986.009243 A 240.000000,240.000000 -0.000000 0 0 2138.597649,-661.464163"
       style="stroke:#000000;fill:none"
       id="path180" />
    <path
       d="M 2200.415311,-878.937911 2138.597649,-986.009243"
       style="stroke:#000000;fill:none"
       id="path182" />
    <path
       d="M 2200.415311,-878.937911 A 14.400000,14.400000 -0.000000 0 0 2228.233975,-871.483922"
       style="stroke:#000000;fill:none"
       id="path184" />
    <path
       d="M 2317.668981,-923.119247 2228.233975,-871.483922"
       style="stroke:#000000;fill:none"
       id="path186" />
    <path
       d="M 2317.668981,-923.119247 A 14.400000,14.400000 -0.000000 0 0 2325.122970,-950.937911"
       style="stroke:#000000;fill:none"
       id="path188" />
    <path
       d="M 2325.122970,-950.937911 2263.305307,-1058.009243"
       style="stroke:#000000;fill:none"
       id="path190" />
    <path
       d="M 2544.369591,-895.736703 A 240.000000,240.000000 -0.000000 0 0 2263.305307,-1058.009243"
       style="stroke:#000000;fill:none"
       id="path192" />
    <path
       d="M 2420.734266,-895.736703 2544.369591,-895.736703"
       style="stroke:#000000;fill:none"
       id="path194" />
    <path
       d="M 2420.734266,-895.736703 A 14.400000,14.400000 -0.000000 1 0 2400.369591,-875.372028"
       style="stroke:#000000;fill:none"
       id="path196" />
    <path
       d="M 2400.369591,-772.101378 2400.369591,-875.372028"
       style="stroke:#000000;fill:none"
       id="path198" />
    <path
       d="M 2400.369591,-772.101378 A 14.400000,14.400000 -0.000000 1 0 2420.734266,-751.736703"
       style="stroke:#000000;fill:none"
       id="path200" />
    <path
       d="M 2420.734266,-751.736703 2544.369591,-751.736703"
       style="stroke:#000000;fill:none"
       id="path202" />
    <path
       d="M 2263.305307,-589.464163 A 240.000000,240.000000 -0.000000 0 0 2544.369591,-751.736703"
       style="stroke:#000000;fill:none"
       id="path204" />
    <path
       d="M 2325.122970,-696.535495 2263.305307,-589.464163"
       style="stroke:#000000;fill:none"
       id="path206" />
    <path
       d="M 2325.122970,-696.535495 A 14.400000,14.400000 -0.000000 0 0 2317.668981,-724.354159"
       style="stroke:#000000;fill:none"
       id="path208" />
    <path
       d="M 2228.233975,-775.989484 2317.668981,-724.354159"
       style="stroke:#000000;fill:none"
       id="path210" />
    <path
       d="M 2228.233975,-775.989484 A 14.400000,14.400000 -0.000000 1 0 2200.415311,-768.535495"
       style="stroke:#000000;fill:none"
       id="path212" />
    <path
       d="M 3368.687843,-563.620666 A 28.800000,28.800000 -0.000000 0 0 3397.487843,-592.420666"
       style="stroke:#000000;fill:none"
       id="path214" />
    <path
       d="M 3160.186100,-563.620666 A 28.800000,28.800000 -0.000000 0 0 3134.084436,-522.649260"
       style="stroke:#000000;fill:none"
       id="path216" />
    <path
       d="M 3694.393225,902.514918 A 47.244094,47.244094 -0.000000 1 0 3780.028607,862.582484"
       style="stroke:#000000;fill:none"
       id="path218" />
    <path
       d="M 3397.487843,-592.420666 3397.487843,-620.313579"
       style="stroke:#000000;fill:none"
       id="path220" />
    <path
       d="M 3160.186100,-563.620666 3368.687843,-563.620666"
       style="stroke:#000000;fill:none"
       id="path222" />
    <path
       d="M 3780.028607,862.582484 3134.084436,-522.649260"
       style="stroke:#000000;fill:none"
       id="path224" />
    <path
       d="M 3019.535088,-544.723028 3694.393225,902.514918"
       style="stroke:#000000;fill:none"
       id="path226" />
    <path
       d="M 3019.535088,-620.313579 3019.535088,-544.723028"
       style="stroke:#000000;fill:none"
       id="path228" />
    <path
       d="M 3019.535088,-620.313579 3397.487843,-620.313579"
       style="stroke:#000000;fill:none"
       id="path230" />
    <path
       d="M 4654.068780,-529.993122 4008.124609,855.238622"
       style="stroke:#000000;fill:none"
       id="path232" />
    <path
       d="M 4008.124609,855.238622 A 28.800000,28.800000 -0.000000 0 0 4034.226274,896.210028"
       style="stroke:#000000;fill:none"
       id="path234" />
    <path
       d="M 4034.226274,896.210028 4242.728017,896.210028"
       style="stroke:#000000;fill:none"
       id="path236" />
    <path
       d="M 4271.528017,925.010028 A 28.800000,28.800000 -0.000000 0 0 4242.728017,896.210028"
       style="stroke:#000000;fill:none"
       id="path238" />
    <path
       d="M 4271.528017,925.010028 4271.528017,952.902941"
       style="stroke:#000000;fill:none"
       id="path240" />
    <path
       d="M 3893.575261,877.312390 4568.433398,-569.925557"
       style="stroke:#000000;fill:none"
       id="path242" />
    <path
       d="M 4654.068780,-529.993122 A 47.244094,47.244094 -0.000000 1 0 4568.433398,-569.925557"
       style="stroke:#000000;fill:none"
       id="path244" />
    <path
       d="M 3893.575261,952.902941 3893.575261,877.312390"
       style="stroke:#000000;fill:none"
       id="path246" />
    <path
       d="M 3893.575261,952.902941 4271.528017,952.902941"
       style="stroke:#000000;fill:none"
       id="path248" />
  </g>
</svg>
